<svg xmlns="http://www.w3.org/2000/svg" width="116" height="78">
    <path fill-rule="evenodd" fill="#58585A" d="M109.79 45.925H6.92c-2.97 0-6.42-3.101-6.42-6.927 0-3.824 3.45-6.268 6.42-6.268h102.87c3.114 0 6.71 2.444 6.71 6.268 0 3.826-3.596 6.927-6.71 6.927zm0-32.033H6.92C3.95 13.892.5 10.791.5 6.966.5 3.14 3.95.39 6.92.39h102.87c3.114 0 6.71 2.75 6.71 6.576 0 3.825-3.596 6.926-6.71 6.926zM6.92 64.105h102.87c3.114 0 6.71 3.101 6.71 7.215 0 3.536-3.596 6.637-6.71 6.637H6.92C3.95 77.957.5 74.856.5 71.32c0-4.114 3.45-7.215 6.42-7.215z"/>
</svg>
