<svg id="Layer_1" data-name="Layer 1" xmlns="http://www.w3.org/2000/svg" viewBox="0 0 426.21 99.18"><defs><style>.cls-1{fill:#58595b;}.cls-2{fill:#003964;}.cls-3{fill:#ed193a;}</style></defs><path class="cls-1" d="M190.61,65.09v-6H174.4V54.65H212v4.49H195.69v6h13.24V79.33h-5.09v-9.8H177V65.09Zm18.22-25.87V51.4h-5.08V43.71H177.33V39.22Z" transform="translate(-44.09 -7.6)"/><path class="cls-1" d="M240.7,60.42h-22V48h16.53V43.89H218.68V39.58h21.57V52.09H223.72v4.12h17ZM221,62.57h5V66h22V62.57h5V78.41H221Zm27,7.51H226V74.2h22Zm-.1-31.69H253V61.2h-5.09Z" transform="translate(-44.09 -7.6)"/><path class="cls-1" d="M276.15,62.39V59.91H259.94V55.56h37.55v4.35H281.23v2.48a9.35,9.35,0,0,1,1.47.46A10.72,10.72,0,0,1,286,64.91a9.92,9.92,0,0,1,2.19,3,8.6,8.6,0,0,1,0,7.37,10.17,10.17,0,0,1-2.19,3,10.84,10.84,0,0,1-11.22,2,10.55,10.55,0,0,1-3.25-2,10,10,0,0,1-2.2-3,8.6,8.6,0,0,1,0-7.37,9.79,9.79,0,0,1,2.2-3,10.6,10.6,0,0,1,3.25-2.06A9.81,9.81,0,0,1,276.15,62.39ZM294.83,43.2H281.05l14.56,7.69-2.34,3.76-14.56-7.74L264.1,54.65l-2.29-3.76,14.57-7.69H262.59V38.9h32.24ZM284,71.59A4.92,4.92,0,0,0,282.4,68,5.21,5.21,0,0,0,275,68a5,5,0,0,0,0,7.28,5.19,5.19,0,0,0,7.38,0A4.9,4.9,0,0,0,284,71.59Z" transform="translate(-44.09 -7.6)"/><path class="cls-1" d="M324.27,49.06a9.3,9.3,0,0,1-.89,4.08,11.25,11.25,0,0,1-2.36,3.3,11.46,11.46,0,0,1-3.5,2.24,11.35,11.35,0,0,1-8.47,0,11.63,11.63,0,0,1-3.51-2.24,11.19,11.19,0,0,1-2.4-3.3,9.73,9.73,0,0,1,0-8.13,10.34,10.34,0,0,1,2.4-3.27,11.47,11.47,0,0,1,3.51-2.25,11.35,11.35,0,0,1,8.47,0,11.3,11.3,0,0,1,3.5,2.25A10.39,10.39,0,0,1,323.38,45,9.36,9.36,0,0,1,324.27,49.06Zm-4.9,0A6.08,6.08,0,0,0,313.28,43,5.76,5.76,0,0,0,309,44.8a6.23,6.23,0,0,0,0,8.64,5.81,5.81,0,0,0,4.3,1.76,5.93,5.93,0,0,0,4.31-1.76A5.85,5.85,0,0,0,319.37,49.11ZM334,70.31a9.23,9.23,0,0,1-.87,4,10.82,10.82,0,0,1-2.29,3.23,11.77,11.77,0,0,1-3.46,2.24,10.59,10.59,0,0,1-4.19.83,10.79,10.79,0,0,1-4.21-.83,11.74,11.74,0,0,1-3.48-2.24,10.43,10.43,0,0,1-2.33-3.23,9.23,9.23,0,0,1-.87-4,9.35,9.35,0,0,1,.87-4,9.79,9.79,0,0,1,2.33-3.21A11.54,11.54,0,0,1,319,60.88a10.79,10.79,0,0,1,4.21-.83,10.59,10.59,0,0,1,4.19.83,11.57,11.57,0,0,1,3.46,2.24,10.14,10.14,0,0,1,2.29,3.21A9.35,9.35,0,0,1,334,70.31Zm-4.94,0A5.89,5.89,0,1,0,319,74.39a5.74,5.74,0,0,0,4.15,1.69,5.8,5.8,0,0,0,4.17-1.69A5.55,5.55,0,0,0,329,70.26Zm6.77-10.21h-5V38.39h5v8.2h5.86v5h-5.86Z" transform="translate(-44.09 -7.6)"/><path class="cls-1" d="M371.35,70.63v4.53H344.83V70.63h8.34V57.21h5V70.63Zm-7.56-4.76V45.12H346.34V40.64h22.44V65.87Zm15.75,13.37h-5.08V38.39h5.08V55.61h5.22v4.81h-5.22Z" transform="translate(-44.09 -7.6)"/><path class="cls-1" d="M411.32,41v4.39H387.51V41h9.34V37.57h5.36V41ZM389.21,65.32h32.14V78.87h-5V69.81h-27.1ZM409,54.83a7.78,7.78,0,0,1-.76,3.39,9.33,9.33,0,0,1-2,2.79,11.07,11.07,0,0,1-3,1.86,9.45,9.45,0,0,1-3.67.71,9.57,9.57,0,0,1-3.68-.71,10.13,10.13,0,0,1-3-1.86,9,9,0,0,1-2-2.79,7.91,7.91,0,0,1-.75-3.39,7.72,7.72,0,0,1,.75-3.36,9,9,0,0,1,2-2.77,10.34,10.34,0,0,1,3-1.86,9.57,9.57,0,0,1,3.68-.71,9.45,9.45,0,0,1,3.67.71,11.32,11.32,0,0,1,3,1.86,9.37,9.37,0,0,1,2,2.77A7.59,7.59,0,0,1,409,54.83Zm-4.86,0a4.22,4.22,0,0,0-1.35-3.14,4.48,4.48,0,0,0-3.23-1.31,4.39,4.39,0,0,0-3.2,1.31A4.23,4.23,0,0,0,395,54.79,4.31,4.31,0,0,0,396.35,58a4.36,4.36,0,0,0,3.2,1.32A4.45,4.45,0,0,0,402.78,58,4.29,4.29,0,0,0,404.13,54.79ZM421.35,63h-5V38.39h5V48h5.86v5h-5.86Z" transform="translate(-44.09 -7.6)"/><path class="cls-1" d="M456.89,58.4v4.45H430.37V58.4h8.29V49.29h5V58.4Zm-7.29-3.89V43.66H432.2V39.22h22.4V54.51Zm-16.34,24V66.28h5.08v7.78h27.47v4.49Zm31.82-13.32H460V38.39h5.08v11h5.22V54h-5.22Z" transform="translate(-44.09 -7.6)"/><path class="cls-2" d="M120.66,54.93c-8.61-5.86-19.65-3.47-25.44,5.34a17.89,17.89,0,0,1-32.35-4.92h0a1.33,1.33,0,0,0,0-.19,2,2,0,0,0-.06-.23,23.07,23.07,0,0,1-.92-7.11c0-16,16.46-33.9,40.17-33.9,24.27,0,38.16,18.48,41.73,28.75-.06-.18-.11-.36-.18-.55A51.11,51.11,0,0,0,44.09,58.71c0,25.23,18.2,46.83,43.44,46.83,20.13,0,33.66-11.29,39.87-26.85C130.8,70.18,128.39,60.18,120.66,54.93Z" transform="translate(-44.09 -7.6)"/><path class="cls-3" d="M144.05,43.67c-3-10-17-29.75-42.05-29.75-23.71,0-40.17,17.86-40.17,33.9a23.07,23.07,0,0,0,.92,7.11,14.86,14.86,0,0,1-.47-3.65C62.28,34.58,79,23,96.2,23a42.14,42.14,0,0,1,42.14,42.14,46.45,46.45,0,0,1-25.75,41.63h0A51.13,51.13,0,0,0,146.3,58.71,50.33,50.33,0,0,0,144.05,43.67Z" transform="translate(-44.09 -7.6)"/></svg>