<svg xmlns="http://www.w3.org/2000/svg" viewBox="0 0 426.21 99.18"><defs><style>.cls-1{fill:#58595b;}.cls-2{fill:#003964;}.cls-3{fill:#ed193a;}</style></defs><g id="레이어_2" data-name="레이어 2"><g id="Layer_1" data-name="Layer 1"><path class="cls-1" d="M146.52,57.49v-6H130.31V47.05h37.55v4.49H151.6v6h13.24V71.73h-5.09v-9.8H132.87V57.49Zm18.23-25.87V43.8h-5.09V36.11H133.24V31.62Z"/><path class="cls-1" d="M196.62,52.82h-22V40.37h16.53V36.29H174.59V32h21.57v12.5H179.63v4.12h17ZM176.88,55h5v3.39h22V55h5V70.82h-32Zm27,7.51h-22V66.6h22Zm-.09-31.69h5.08V53.6h-5.08Z"/><path class="cls-1" d="M232.06,54.79V52.32H215.85V48H253.4v4.35H237.14v2.47a9.35,9.35,0,0,1,1.47.46,10.72,10.72,0,0,1,3.25,2.06,10,10,0,0,1,2.2,3,8.69,8.69,0,0,1,0,7.37,10.2,10.2,0,0,1-2.2,3,10.84,10.84,0,0,1-11.22,2,10.55,10.55,0,0,1-3.25-2,10,10,0,0,1-2.2-3,8.69,8.69,0,0,1,0-7.37,9.79,9.79,0,0,1,2.2-3,10.6,10.6,0,0,1,3.25-2.06A9.81,9.81,0,0,1,232.06,54.79ZM250.74,35.6H237l14.56,7.7-2.33,3.75-14.57-7.74L220,47.05l-2.29-3.75,14.56-7.7H218.5V31.3h32.24ZM239.89,64a4.93,4.93,0,0,0-1.58-3.64,5.2,5.2,0,0,0-7.37,0,5,5,0,0,0,0,7.28,5.18,5.18,0,0,0,7.37,0A4.9,4.9,0,0,0,239.89,64Z"/><path class="cls-1" d="M280.19,41.46a9.3,9.3,0,0,1-.9,4.08,11.25,11.25,0,0,1-2.36,3.3,11.46,11.46,0,0,1-3.5,2.24,11.35,11.35,0,0,1-8.47,0,11.46,11.46,0,0,1-3.5-2.24,11.05,11.05,0,0,1-2.41-3.3,9.73,9.73,0,0,1,0-8.13,10.33,10.33,0,0,1,2.41-3.27,11.3,11.3,0,0,1,3.5-2.25,11.35,11.35,0,0,1,8.47,0,11.3,11.3,0,0,1,3.5,2.25,10.5,10.5,0,0,1,2.36,3.27A9.36,9.36,0,0,1,280.19,41.46Zm-4.9,0a6.11,6.11,0,0,0-6.09-6.09,5.79,5.79,0,0,0-4.31,1.79,6.22,6.22,0,0,0,0,8.63,5.84,5.84,0,0,0,4.31,1.76,5.93,5.93,0,0,0,4.3-1.76A5.86,5.86,0,0,0,275.29,41.51Zm14.6,21.2a9.17,9.17,0,0,1-.87,4,10.82,10.82,0,0,1-2.29,3.23,11.33,11.33,0,0,1-3.45,2.24,10.66,10.66,0,0,1-4.19.83,10.84,10.84,0,0,1-4.22-.83,11.35,11.35,0,0,1-3.48-2.24,10.59,10.59,0,0,1-2.33-3.23,9.17,9.17,0,0,1-.87-4,9.35,9.35,0,0,1,.87-4,10,10,0,0,1,2.33-3.21,11.74,11.74,0,0,1,3.48-2.24,10.84,10.84,0,0,1,4.22-.83,10.66,10.66,0,0,1,4.19.83,11.72,11.72,0,0,1,3.45,2.24A10.25,10.25,0,0,1,289,58.73,9.35,9.35,0,0,1,289.89,62.71Zm-4.94,0A5.94,5.94,0,0,0,279,56.8a5.59,5.59,0,0,0-4.14,1.74,5.68,5.68,0,0,0-1.72,4.13,5.57,5.57,0,0,0,1.72,4.12A5.66,5.66,0,0,0,279,68.48a5.76,5.76,0,0,0,4.17-1.69A5.55,5.55,0,0,0,285,62.67Zm6.78-10.22h-5V30.79h5V39h5.86v5h-5.86Z"/><path class="cls-1" d="M327.26,63v4.54H300.75V63h8.33V49.62h5V63Zm-7.56-4.76V37.53H302.26V33h22.43V58.27Zm15.76,13.37h-5.09V30.79h5.09V48h5.22v4.81h-5.22Z"/><path class="cls-1" d="M367.23,33.36v4.4H343.42v-4.4h9.34V30h5.36v3.39ZM345.12,57.72h32.14V71.27h-5V62.21H345.12ZM364.9,47.23a7.78,7.78,0,0,1-.76,3.39,9.33,9.33,0,0,1-2,2.8,11.13,11.13,0,0,1-3,1.85,9.44,9.44,0,0,1-3.66.71,9.62,9.62,0,0,1-3.69-.71,10.59,10.59,0,0,1-3-1.85,9.3,9.3,0,0,1-2-2.8,7.91,7.91,0,0,1-.75-3.39,7.72,7.72,0,0,1,.75-3.36,9.3,9.3,0,0,1,2-2.77,10.84,10.84,0,0,1,3-1.86,9.62,9.62,0,0,1,3.69-.71,9.44,9.44,0,0,1,3.66.71,11.42,11.42,0,0,1,3,1.86,9.32,9.32,0,0,1,2,2.77A7.59,7.59,0,0,1,364.9,47.23Zm-4.85,0a4.23,4.23,0,0,0-1.36-3.14,4.46,4.46,0,0,0-3.22-1.3,4.41,4.41,0,0,0-3.21,1.3,4.27,4.27,0,0,0-1.33,3.14,4.35,4.35,0,0,0,1.33,3.16,4.39,4.39,0,0,0,3.21,1.33,4.45,4.45,0,0,0,3.22-1.33A4.3,4.3,0,0,0,360.05,47.19Zm17.21,8.24h-5V30.79h5v9.58h5.86v5h-5.86Z"/><path class="cls-1" d="M412.8,50.81v4.44H386.28V50.81h8.29V41.69h5v9.12Zm-7.28-3.9V36.06h-17.4V31.62h22.39V46.91ZM389.17,71V58.68h5.08v7.79h27.48V71ZM421,57.63h-5.08V30.79H421v11h5.22v4.62H421Z"/><path class="cls-2" d="M76.57,47.33C68,41.48,56.92,43.86,51.13,52.67a17.89,17.89,0,0,1-32.35-4.92h0a1.33,1.33,0,0,0-.05-.19,1.12,1.12,0,0,0-.06-.23,23,23,0,0,1-.91-7.11c0-16,16.45-33.9,40.16-33.9,24.27,0,38.16,18.48,41.73,28.75,0-.18-.11-.36-.17-.54A51.12,51.12,0,0,0,0,51.11C0,76.34,18.2,97.94,43.44,97.94c20.13,0,33.66-11.29,39.87-26.85C86.71,62.58,84.3,52.58,76.57,47.33Z"/><path class="cls-3" d="M100,36.07c-3-10-17-29.75-42-29.75-23.71,0-40.16,17.86-40.16,33.9a23,23,0,0,0,.91,7.11,15.34,15.34,0,0,1-.47-3.64c0-16.71,16.73-28.28,33.92-28.28A42.14,42.14,0,0,1,94.26,57.55,46.46,46.46,0,0,1,68.5,99.17h0a51.12,51.12,0,0,0,33.7-48.07A50.33,50.33,0,0,0,100,36.07Z"/></g></g></svg>