<svg xmlns="http://www.w3.org/2000/svg" viewBox="0 0 567.95 111.66"><defs><style>.cls-1{fill:#fff;}</style></defs><g id="레이어_2" data-name="레이어 2"><g id="레이어_1-2" data-name="레이어 1"><path class="cls-1" d="M76.86,90H33.56l-7.8,21.65H0L43.29,0h25.9l43.29,111.66H84.67ZM69.19,68.36l-14-38.9-14,38.9Z"/><path class="cls-1" d="M148.64,0V111.66H123.71V0Z"/><path class="cls-1" d="M331,90H287.7l-7.81,21.65H254.14L297.43,0h25.89l43.29,111.66H338.8Zm-7.67-21.65-14-38.9-14,38.9Z"/><path class="cls-1" d="M442.29,111.66,420.65,76.45H400.78v35.21H375.85V0h44.93q14,0,24.11,4.73a35.05,35.05,0,0,1,15.48,13.35,37.43,37.43,0,0,1,5.35,20.14,37.45,37.45,0,0,1-5.28,20.07,34.55,34.55,0,0,1-15.13,13.22l25.89,40.15ZM400.78,54.39h18.91q10,0,15.55-4.18t5.54-12q0-7.8-5.54-12t-15.55-4.18H400.78Z"/><path class="cls-1" d="M568,22.06H531.64v89.6H506.71V22.06H470.4V0H568Z"/><path class="cls-1" d="M201.92,54.27,170.3,6H178L195,32.81c3.45,5.55,7.29,10.92,11.12,16.67h.77c3.64-5.75,6.9-11.12,10.73-16.67L234.31,6h7.29L210,54.66,244.66,107h-7.85L218,78c-3.64-6.33-7.86-12.65-12.07-18.59h-1c-4.22,5.94-8.05,12.26-12.08,18.59L174.71,107h-7.48Z"/></g></g></svg>